<svg width="1920" height="1388" viewBox="0 0 1920 1388" fill="none" xmlns="http://www.w3.org/2000/svg">
<path opacity="0.13" d="M0.5 0.5H1919.5V276.154L1918.65 276.476C1917.87 276.771 1916.7 277.213 1915.17 277.797C1912.09 278.966 1907.53 280.708 1901.56 283C1889.62 287.584 1872.08 294.369 1849.64 303.173C1804.77 320.782 1740.33 346.466 1662.07 378.772C1505.54 443.384 1293.7 534.481 1072.47 640.424C851.244 746.366 620.614 867.157 426.504 991.157C233.203 1114.64 76.0506 1241.35 0.5 1359.78V0.5Z" fill="url(#paint0_linear)" stroke="black"/>
<path opacity="0.04" d="M2108.46 1147.28C1727.94 1113.89 1446.39 1079.85 1056.79 1300.14C555.44 1583.69 -9.64398 1431.27 0.124909 785.729C5.00936 462.957 51.179 125.971 726.279 252.368C1743.52 430.01 1706.89 34.4174 2234.06 3.72932C2716.34 -24.3346 3111.63 100.386 3214.67 569.382C3292.47 923.862 3020.22 1227.24 2108.46 1147.28Z" transform="matrix(-0.988568 -0.150771 -0.152892 0.988243 2546.01 46.5793)" fill="#2472BA"/>
<defs>
<linearGradient id="paint0_linear" x2="1" gradientUnits="userSpaceOnUse" gradientTransform="matrix(-1259.5 -772.5 968.463 -1579 658.769 1497.5)">
<stop stop-color="#2472BA"/>
<stop offset="1" stop-color="#2472BA" stop-opacity="0.29"/>
</linearGradient>
</defs>
</svg>
